<svg width="800" height="600" viewBox="0 0 800 600" xmlns="http://www.w3.org/2000/svg">
  <!-- Hero Image Placeholder - Aerial view of Florida land -->
  <defs>
    <linearGradient id="skyGradient" x1="0%" y1="0%" x2="0%" y2="100%">
      <stop offset="0%" style="stop-color:#87CEEB;stop-opacity:1" />
      <stop offset="100%" style="stop-color:#E0F6FF;stop-opacity:1" />
    </linearGradient>
    <pattern id="landPattern" patternUnits="userSpaceOnUse" width="40" height="40">
      <rect width="40" height="40" fill="#8B7355"/>
      <rect x="0" y="0" width="20" height="20" fill="#A0826D" opacity="0.5"/>
      <rect x="20" y="20" width="20" height="20" fill="#A0826D" opacity="0.5"/>
    </pattern>
  </defs>
  
  <!-- Sky background -->
  <rect width="800" height="300" fill="url(#skyGradient)"/>
  
  <!-- Land parcels -->
  <g id="land">
    <!-- Main parcel -->
    <rect x="100" y="250" width="600" height="300" fill="url(#landPattern)"/>
    
    <!-- Parcel divisions -->
    <line x1="100" y1="250" x2="700" y2="250" stroke="#1F3D1B" stroke-width="2"/>
    <line x1="300" y1="250" x2="300" y2="550" stroke="#1F3D1B" stroke-width="1" opacity="0.5"/>
    <line x1="500" y1="250" x2="500" y2="550" stroke="#1F3D1B" stroke-width="1" opacity="0.5"/>
    <line x1="100" y1="400" x2="700" y2="400" stroke="#1F3D1B" stroke-width="1" opacity="0.5"/>
    
    <!-- Trees/vegetation -->
    <circle cx="150" cy="300" r="20" fill="#228B22" opacity="0.7"/>
    <circle cx="180" cy="320" r="15" fill="#228B22" opacity="0.6"/>
    <circle cx="600" cy="350" r="25" fill="#228B22" opacity="0.7"/>
    <circle cx="630" cy="370" r="18" fill="#228B22" opacity="0.6"/>
    
    <!-- Road -->
    <rect x="0" y="480" width="800" height="40" fill="#696969"/>
    <rect x="0" y="498" width="800" height="4" fill="#FFFF00" opacity="0.8"/>
    
    <!-- Property markers -->
    <circle cx="200" cy="350" r="5" fill="#FF0000"/>
    <circle cx="400" cy="350" r="5" fill="#FF0000"/>
    <circle cx="600" cy="350" r="5" fill="#FF0000"/>
  </g>
  
  <!-- Overlay text -->
  <text x="400" y="580" font-family="Arial, sans-serif" font-size="14" fill="#4A4A4A" text-anchor="middle">
    Aerial view of undeveloped Florida land parcels
  </text>
</svg>